<svg xmlns="http://www.w3.org/2000/svg" xmlns:xlink="http://www.w3.org/1999/xlink" width="128" zoomAndPan="magnify" viewBox="0 0 96 95.999999" height="128" preserveAspectRatio="xMidYMid meet" version="1.0"><defs><clipPath id="6f990c64ff"><path d="M -19.882812 48 L 48 -19.882812 L 115.882812 48 L 48 115.882812 Z M -19.882812 48 " clip-rule="nonzero"/></clipPath><clipPath id="b703487abd"><path d="M -19.882812 48 L 48 -19.882812 L 115.882812 48 L 48 115.882812 Z M -19.882812 48 " clip-rule="nonzero"/></clipPath></defs><g clip-path="url(#6f990c64ff)"><g clip-path="url(#b703487abd)"><path fill="#5bc9ff" d="M 13.964844 14.152344 C 12.855469 15.261719 11.804688 16.421875 10.808594 17.632812 C 9.816406 18.84375 8.882812 20.101562 8.011719 21.40625 C 7.140625 22.710938 6.335938 24.054688 5.597656 25.4375 C 4.859375 26.816406 4.1875 28.234375 3.589844 29.683594 C 2.988281 31.128906 2.460938 32.605469 2.003906 34.105469 C 1.550781 35.605469 1.171875 37.125 0.863281 38.660156 C 0.558594 40.199219 0.328125 41.746094 0.175781 43.308594 C 0.0195312 44.867188 -0.0546875 46.429688 -0.0546875 48 C -0.0546875 49.566406 0.0195312 51.128906 0.175781 52.691406 C 0.328125 54.25 0.558594 55.800781 0.863281 57.335938 C 1.171875 58.875 1.550781 60.394531 2.003906 61.894531 C 2.460938 63.394531 2.988281 64.867188 3.589844 66.316406 C 4.1875 67.765625 4.859375 69.179688 5.597656 70.5625 C 6.335938 71.945312 7.140625 73.289062 8.011719 74.589844 C 8.882812 75.894531 9.816406 77.152344 10.808594 78.363281 C 11.804688 79.578125 12.855469 80.738281 13.964844 81.84375 C 15.074219 82.953125 16.234375 84.003906 17.445312 85 C 18.65625 85.992188 19.914062 86.925781 21.21875 87.796875 C 22.519531 88.667969 23.863281 89.472656 25.246094 90.210938 C 26.628906 90.953125 28.042969 91.621094 29.492188 92.222656 C 30.941406 92.820312 32.414062 93.347656 33.914062 93.804688 C 35.414062 94.257812 36.933594 94.640625 38.472656 94.945312 C 40.007812 95.25 41.558594 95.480469 43.117188 95.632812 C 44.679688 95.789062 46.242188 95.863281 47.808594 95.863281 C 49.378906 95.863281 50.941406 95.789062 52.5 95.632812 C 54.0625 95.480469 55.609375 95.25 57.148438 94.945312 C 58.683594 94.640625 60.203125 94.257812 61.703125 93.804688 C 63.203125 93.347656 64.679688 92.820312 66.128906 92.222656 C 67.574219 91.621094 68.992188 90.953125 70.375 90.210938 C 71.753906 89.472656 73.097656 88.667969 74.402344 87.796875 C 75.707031 86.925781 76.964844 85.992188 78.175781 85 C 79.386719 84.003906 80.546875 82.953125 81.65625 81.84375 C 82.765625 80.738281 83.816406 79.578125 84.808594 78.363281 C 85.804688 77.152344 86.738281 75.894531 87.609375 74.589844 C 88.480469 73.289062 89.285156 71.945312 90.023438 70.5625 C 90.761719 69.179688 91.429688 67.765625 92.03125 66.316406 C 92.632812 64.867188 93.160156 63.394531 93.613281 61.894531 C 94.070312 60.394531 94.449219 58.875 94.753906 57.335938 C 95.0625 55.800781 95.289062 54.25 95.445312 52.691406 C 95.597656 51.128906 95.675781 49.566406 95.675781 48 C 95.675781 46.429688 95.597656 44.867188 95.445312 43.308594 C 95.289062 41.746094 95.0625 40.199219 94.753906 38.660156 C 94.449219 37.125 94.070312 35.605469 93.613281 34.105469 C 93.160156 32.605469 92.632812 31.128906 92.03125 29.683594 C 91.429688 28.234375 90.761719 26.816406 90.023438 25.4375 C 89.285156 24.054688 88.480469 22.710938 87.609375 21.40625 C 86.738281 20.101562 85.804688 18.84375 84.808594 17.632812 C 83.816406 16.421875 82.765625 15.261719 81.65625 14.152344 C 80.546875 13.046875 79.386719 11.992188 78.175781 11 C 76.964844 10.003906 75.707031 9.074219 74.402344 8.203125 C 73.097656 7.332031 71.753906 6.527344 70.371094 5.789062 C 68.992188 5.046875 67.574219 4.378906 66.125 3.777344 C 64.679688 3.179688 63.203125 2.652344 61.703125 2.195312 C 60.203125 1.742188 58.683594 1.363281 57.148438 1.054688 C 55.609375 0.75 54.0625 0.519531 52.5 0.367188 C 50.941406 0.214844 49.378906 0.136719 47.808594 0.136719 C 46.242188 0.136719 44.679688 0.214844 43.117188 0.367188 C 41.558594 0.519531 40.007812 0.75 38.472656 1.054688 C 36.933594 1.363281 35.414062 1.742188 33.914062 2.195312 C 32.414062 2.652344 30.941406 3.179688 29.492188 3.777344 C 28.042969 4.378906 26.628906 5.046875 25.246094 5.789062 C 23.863281 6.527344 22.519531 7.332031 21.21875 8.203125 C 19.914062 9.074219 18.65625 10.003906 17.445312 11 C 16.234375 11.992188 15.074219 13.046875 13.964844 14.152344 Z M 53.699219 12.324219 L 73.257812 59.296875 C 73.488281 59.863281 73.636719 60.457031 73.699219 61.066406 C 73.761719 61.679688 73.734375 62.289062 73.621094 62.894531 C 73.507812 63.5 73.308594 64.074219 73.03125 64.621094 C 72.75 65.171875 72.398438 65.667969 71.972656 66.113281 C 71.550781 66.558594 71.070312 66.9375 70.539062 67.246094 C 70.003906 67.554688 69.441406 67.78125 68.84375 67.925781 C 68.246094 68.070312 67.636719 68.125 67.023438 68.097656 C 66.410156 68.066406 65.8125 67.949219 65.230469 67.746094 L 49.703125 62.226562 C 48.449219 61.777344 47.191406 61.777344 45.9375 62.226562 L 30.410156 67.746094 C 29.828125 67.953125 29.230469 68.078125 28.613281 68.109375 C 27.996094 68.144531 27.386719 68.089844 26.789062 67.949219 C 26.1875 67.804688 25.617188 67.582031 25.082031 67.273438 C 24.546875 66.964844 24.066406 66.585938 23.640625 66.136719 C 23.214844 65.691406 22.863281 65.191406 22.582031 64.640625 C 22.304688 64.089844 22.105469 63.511719 21.996094 62.902344 C 21.882812 62.296875 21.859375 61.683594 21.925781 61.070312 C 21.992188 60.457031 22.144531 59.863281 22.382812 59.296875 L 41.941406 12.324219 C 42.1875 11.746094 42.507812 11.21875 42.910156 10.738281 C 43.3125 10.257812 43.773438 9.84375 44.296875 9.5 C 44.820312 9.152344 45.382812 8.890625 45.980469 8.710938 C 46.582031 8.53125 47.195312 8.441406 47.820312 8.441406 C 48.445312 8.441406 49.058594 8.53125 49.660156 8.710938 C 50.261719 8.890625 50.820312 9.152344 51.34375 9.5 C 51.867188 9.84375 52.328125 10.257812 52.730469 10.738281 C 53.132812 11.21875 53.453125 11.746094 53.699219 12.324219 Z M 53.699219 12.324219 " fill-opacity="1" fill-rule="nonzero"/></g></g></svg>