<svg xmlns="http://www.w3.org/2000/svg" xmlns:xlink="http://www.w3.org/1999/xlink" width="128" zoomAndPan="magnify" viewBox="0 0 96 95.999999" height="128" preserveAspectRatio="xMidYMid meet" version="1.0"><defs><clipPath id="9befba1b1e"><path d="M 7.441406 0 L 86.191406 0 L 86.191406 96 L 7.441406 96 Z M 7.441406 0 " clip-rule="nonzero"/></clipPath></defs><g clip-path="url(#9befba1b1e)"><path fill="#ffd699" d="M 59.566406 7.621094 C 71.945312 7.605469 78.234375 7.589844 78.425781 7.582031 C 81.417969 7.472656 83.699219 7.683594 85.535156 10.199219 C 86.726562 11.820312 86.316406 14.96875 86.339844 16.292969 C 86.382812 18.976562 84.515625 20.808594 81.972656 21 C 81.78125 21.015625 81.625 21.167969 81.609375 21.359375 C 79.0625 44.976562 76.90625 66.117188 75.140625 84.789062 C 74.816406 88.1875 74.351562 90.363281 73.746094 91.308594 C 72.617188 93.0625 71.132812 94.375 69.289062 95.246094 C 68.207031 95.753906 66.304688 95.996094 63.585938 95.980469 C 50.476562 95.894531 40 95.894531 32.148438 95.972656 C 28.335938 96.011719 25.886719 95.753906 24.804688 95.207031 C 22.792969 94.191406 21.296875 92.710938 20.304688 90.773438 C 19.828125 89.847656 19.433594 87.773438 19.121094 84.546875 C 16.570312 58.4375 14.441406 37.4375 12.738281 21.546875 C 12.714844 21.339844 12.546875 21.183594 12.339844 21.171875 C 7.75 20.921875 7.207031 17.246094 7.507812 13.230469 C 7.785156 9.542969 9.816406 7.691406 13.601562 7.667969 C 15 7.65625 21.921875 7.632812 34.371094 7.601562 C 34.542969 7.601562 34.683594 7.460938 34.675781 7.285156 C 34.640625 4.164062 35.789062 1.96875 38.136719 0.707031 C 39.039062 0.21875 40.578125 -0.00390625 42.757812 0.0234375 C 46.445312 0.0742188 49.277344 0.0742188 51.25 0.0234375 C 56.308594 -0.113281 58.96875 2.308594 59.207031 7.28125 C 59.21875 7.472656 59.375 7.621094 59.566406 7.621094 M 38.128906 7.582031 L 55.75 7.617188 C 55.84375 7.617188 55.921875 7.539062 55.921875 7.441406 L 55.929688 6.628906 C 55.929688 4.792969 54.550781 3.296875 52.839844 3.296875 L 41.0625 3.273438 C 39.351562 3.273438 37.960938 4.757812 37.960938 6.597656 L 37.957031 7.410156 C 37.957031 7.503906 38.035156 7.582031 38.128906 7.582031 M 12.300781 17.980469 L 81.535156 17.980469 C 82.476562 17.980469 83.242188 17.210938 83.242188 16.269531 L 83.242188 13.972656 C 83.242188 12.183594 81.691406 10.738281 79.773438 10.738281 L 14.058594 10.738281 C 12.144531 10.738281 10.589844 12.183594 10.589844 13.972656 L 10.589844 16.269531 C 10.589844 17.210938 11.359375 17.980469 12.300781 17.980469 M 47.140625 92.734375 C 53.558594 92.734375 59.460938 92.726562 64.835938 92.722656 C 67.429688 92.714844 69.300781 91.871094 70.4375 90.171875 C 71.09375 89.191406 71.578125 87.140625 71.878906 84.007812 C 73.539062 66.664062 75.644531 45.835938 78.207031 21.539062 C 78.222656 21.363281 78.089844 21.210938 77.914062 21.210938 C 63.84375 21.203125 53.59375 21.191406 47.160156 21.191406 C 40.726562 21.191406 30.472656 21.191406 16.402344 21.203125 C 16.230469 21.203125 16.09375 21.351562 16.113281 21.527344 C 18.660156 45.828125 20.761719 66.652344 22.410156 83.996094 C 22.710938 87.128906 23.195312 89.1875 23.851562 90.160156 C 24.988281 91.859375 26.855469 92.710938 29.453125 92.714844 C 34.828125 92.722656 40.726562 92.726562 47.140625 92.734375 Z M 47.140625 92.734375 " fill-opacity="1" fill-rule="nonzero"/></g><path fill="#ffd699" d="M 48.671875 81.207031 C 48.671875 82.070312 47.976562 82.765625 47.113281 82.765625 L 46.992188 82.765625 C 46.128906 82.765625 45.433594 82.070312 45.433594 81.207031 L 45.433594 31.898438 C 45.433594 31.035156 46.128906 30.34375 46.992188 30.34375 L 47.113281 30.34375 C 47.976562 30.34375 48.671875 31.035156 48.671875 31.898438 Z M 48.671875 81.207031 " fill-opacity="1" fill-rule="nonzero"/><path fill="#ffd699" d="M 61.964844 81.367188 C 61.886719 82.269531 61.089844 82.933594 60.191406 82.855469 L 60.160156 82.851562 C 59.257812 82.773438 58.589844 81.980469 58.671875 81.082031 L 62.960938 32.050781 C 63.039062 31.148438 63.835938 30.488281 64.734375 30.5625 L 64.769531 30.566406 C 65.667969 30.644531 66.335938 31.441406 66.253906 32.339844 Z M 61.964844 81.367188 " fill-opacity="1" fill-rule="nonzero"/><path fill="#ffd699" d="M 35.589844 80.96875 C 35.671875 81.871094 35.003906 82.667969 34.101562 82.75 L 34.070312 82.75 C 33.164062 82.832031 32.371094 82.164062 32.289062 81.261719 L 27.9375 32.507812 C 27.859375 31.601562 28.523438 30.808594 29.425781 30.726562 L 29.457031 30.722656 C 30.363281 30.644531 31.160156 31.3125 31.242188 32.214844 Z M 35.589844 80.96875 " fill-opacity="1" fill-rule="nonzero"/></svg>