<svg xmlns="http://www.w3.org/2000/svg" xmlns:xlink="http://www.w3.org/1999/xlink" width="128" zoomAndPan="magnify" viewBox="0 0 96 95.999999" height="128" preserveAspectRatio="xMidYMid meet" version="1.0"><defs><clipPath id="c21fdcc06e"><path d="M 6.894531 0 L 89 0 L 89 96 L 6.894531 96 Z M 6.894531 0 " clip-rule="nonzero"/></clipPath></defs><g clip-path="url(#c21fdcc06e)"><path fill="#9c94c1" d="M 78.589844 97.035156 L 29.277344 97.035156 C 28.601562 97.035156 27.929688 96.964844 27.265625 96.835938 C 26.601562 96.703125 25.953125 96.503906 25.328125 96.246094 C 24.703125 95.984375 24.109375 95.667969 23.542969 95.292969 C 22.980469 94.914062 22.460938 94.488281 21.980469 94.007812 C 21.5 93.527344 21.074219 93.007812 20.695312 92.445312 C 20.320312 91.882812 20 91.285156 19.742188 90.660156 C 19.480469 90.035156 19.285156 89.390625 19.152344 88.726562 C 19.019531 88.0625 18.953125 87.390625 18.949219 86.710938 L 18.949219 23.003906 C 18.953125 22.324219 19.019531 21.652344 19.152344 20.988281 C 19.285156 20.324219 19.480469 19.679688 19.742188 19.054688 C 20 18.425781 20.320312 17.832031 20.695312 17.269531 C 21.074219 16.707031 21.5 16.183594 21.980469 15.707031 C 22.460938 15.226562 22.980469 14.800781 23.542969 14.421875 C 24.109375 14.046875 24.703125 13.726562 25.328125 13.46875 C 25.953125 13.210938 26.601562 13.011719 27.265625 12.878906 C 27.929688 12.746094 28.601562 12.679688 29.277344 12.679688 L 78.589844 12.679688 C 79.269531 12.679688 79.941406 12.746094 80.605469 12.878906 C 81.269531 13.011719 81.914062 13.210938 82.539062 13.46875 C 83.167969 13.726562 83.761719 14.046875 84.324219 14.421875 C 84.886719 14.800781 85.410156 15.226562 85.890625 15.707031 C 86.367188 16.183594 86.796875 16.707031 87.171875 17.269531 C 87.550781 17.832031 87.867188 18.425781 88.128906 19.054688 C 88.386719 19.679688 88.585938 20.324219 88.71875 20.988281 C 88.851562 21.652344 88.917969 22.324219 88.917969 23.003906 L 88.917969 86.710938 C 88.917969 87.390625 88.851562 88.0625 88.71875 88.726562 C 88.585938 89.390625 88.386719 90.035156 88.128906 90.660156 C 87.867188 91.285156 87.550781 91.882812 87.171875 92.445312 C 86.796875 93.007812 86.367188 93.527344 85.890625 94.007812 C 85.410156 94.488281 84.886719 94.914062 84.324219 95.292969 C 83.761719 95.667969 83.167969 95.984375 82.539062 96.246094 C 81.914062 96.503906 81.269531 96.703125 80.605469 96.835938 C 79.941406 96.964844 79.269531 97.035156 78.589844 97.035156 Z M 29.277344 17.753906 C 28.933594 17.753906 28.59375 17.789062 28.253906 17.855469 C 27.917969 17.925781 27.589844 18.023438 27.269531 18.15625 C 26.953125 18.289062 26.648438 18.449219 26.363281 18.640625 C 26.074219 18.832031 25.8125 19.050781 25.566406 19.292969 C 25.324219 19.535156 25.105469 19.800781 24.914062 20.085938 C 24.722656 20.375 24.558594 20.675781 24.429688 20.996094 C 24.296875 21.3125 24.195312 21.640625 24.128906 21.976562 C 24.058594 22.316406 24.027344 22.65625 24.027344 23.003906 L 24.027344 86.710938 C 24.027344 87.058594 24.058594 87.398438 24.128906 87.734375 C 24.195312 88.074219 24.296875 88.402344 24.429688 88.71875 C 24.558594 89.039062 24.722656 89.339844 24.914062 89.625 C 25.105469 89.914062 25.324219 90.179688 25.566406 90.421875 C 25.8125 90.664062 26.074219 90.882812 26.363281 91.074219 C 26.648438 91.265625 26.953125 91.425781 27.269531 91.558594 C 27.589844 91.691406 27.917969 91.789062 28.253906 91.859375 C 28.59375 91.925781 28.933594 91.960938 29.277344 91.960938 L 78.589844 91.960938 C 78.9375 91.960938 79.277344 91.925781 79.617188 91.859375 C 79.953125 91.789062 80.28125 91.691406 80.601562 91.558594 C 80.917969 91.425781 81.21875 91.265625 81.507812 91.074219 C 81.792969 90.882812 82.058594 90.664062 82.300781 90.421875 C 82.546875 90.179688 82.765625 89.914062 82.957031 89.625 C 83.148438 89.339844 83.308594 89.039062 83.441406 88.71875 C 83.574219 88.402344 83.671875 88.074219 83.742188 87.734375 C 83.808594 87.398438 83.84375 87.058594 83.84375 86.710938 L 83.84375 23.003906 C 83.84375 22.65625 83.808594 22.316406 83.742188 21.976562 C 83.671875 21.640625 83.574219 21.3125 83.441406 20.996094 C 83.308594 20.675781 83.148438 20.375 82.957031 20.085938 C 82.765625 19.800781 82.546875 19.535156 82.300781 19.292969 C 82.058594 19.050781 81.792969 18.832031 81.507812 18.640625 C 81.21875 18.449219 80.917969 18.289062 80.601562 18.15625 C 80.28125 18.023438 79.953125 17.925781 79.617188 17.855469 C 79.277344 17.789062 78.9375 17.753906 78.589844 17.753906 Z M 9.429688 75.917969 C 9.09375 75.917969 8.769531 75.855469 8.460938 75.726562 C 8.148438 75.597656 7.875 75.414062 7.636719 75.175781 C 7.398438 74.9375 7.214844 74.664062 7.085938 74.351562 C 6.957031 74.042969 6.894531 73.71875 6.894531 73.382812 L 6.894531 19.019531 C 6.894531 18.417969 6.925781 17.816406 6.984375 17.214844 C 7.042969 16.617188 7.132812 16.019531 7.25 15.429688 C 7.367188 14.839844 7.515625 14.257812 7.691406 13.679688 C 7.867188 13.101562 8.070312 12.535156 8.300781 11.980469 C 8.53125 11.421875 8.789062 10.878906 9.074219 10.347656 C 9.355469 9.816406 9.667969 9.300781 10 8.800781 C 10.335938 8.300781 10.695312 7.816406 11.078125 7.351562 C 11.460938 6.886719 11.863281 6.441406 12.289062 6.011719 C 12.714844 5.585938 13.160156 5.183594 13.625 4.800781 C 14.09375 4.417969 14.574219 4.058594 15.078125 3.726562 C 15.578125 3.390625 16.09375 3.082031 16.625 2.796875 C 17.15625 2.511719 17.699219 2.253906 18.257812 2.023438 C 18.8125 1.792969 19.378906 1.589844 19.957031 1.414062 C 20.53125 1.238281 21.113281 1.09375 21.707031 0.976562 C 22.296875 0.855469 22.890625 0.769531 23.492188 0.707031 C 24.089844 0.648438 24.691406 0.617188 25.292969 0.617188 L 65.25 0.617188 C 65.585938 0.617188 65.910156 0.683594 66.222656 0.8125 C 66.53125 0.941406 66.808594 1.125 67.046875 1.363281 C 67.28125 1.597656 67.464844 1.875 67.59375 2.183594 C 67.722656 2.496094 67.789062 2.820312 67.789062 3.15625 C 67.789062 3.492188 67.722656 3.816406 67.59375 4.125 C 67.464844 4.4375 67.28125 4.710938 67.046875 4.949219 C 66.808594 5.1875 66.53125 5.371094 66.222656 5.5 C 65.910156 5.628906 65.585938 5.691406 65.25 5.691406 L 25.292969 5.691406 C 24.417969 5.695312 23.554688 5.78125 22.695312 5.953125 C 21.835938 6.121094 21.003906 6.375 20.195312 6.710938 C 19.390625 7.046875 18.621094 7.457031 17.894531 7.941406 C 17.167969 8.429688 16.496094 8.980469 15.875 9.601562 C 15.257812 10.21875 14.707031 10.890625 14.21875 11.617188 C 13.734375 12.347656 13.320312 13.113281 12.988281 13.921875 C 12.652344 14.730469 12.398438 15.5625 12.226562 16.417969 C 12.054688 17.277344 11.96875 18.144531 11.96875 19.019531 L 11.96875 73.382812 C 11.96875 73.71875 11.902344 74.042969 11.777344 74.351562 C 11.648438 74.664062 11.464844 74.9375 11.226562 75.175781 C 10.988281 75.414062 10.714844 75.597656 10.402344 75.726562 C 10.089844 75.855469 9.769531 75.917969 9.429688 75.917969 Z M 9.429688 75.917969 " fill-opacity="1" fill-rule="nonzero"/></g></svg>