<svg xmlns="http://www.w3.org/2000/svg" xmlns:xlink="http://www.w3.org/1999/xlink" width="128" zoomAndPan="magnify" viewBox="0 0 96 95.999999" height="128" preserveAspectRatio="xMidYMid meet" version="1.0"><defs><clipPath id="3532ec73dd"><path d="M 0 23 L 96 23 L 96 72.988281 L 0 72.988281 Z M 0 23 " clip-rule="nonzero"/></clipPath></defs><g clip-path="url(#3532ec73dd)"><path fill="#00bf63" d="M 17.625 70.5 C 19.050781 72.023438 20.960938 72.796875 22.867188 72.796875 C 24.542969 72.796875 26.238281 72.191406 27.609375 71.003906 L 38.515625 61.417969 L 46.996094 70.5 C 48.417969 72.023438 50.328125 72.796875 52.238281 72.796875 C 53.929688 72.796875 55.621094 72.191406 56.996094 71.003906 L 93.4375 38.96875 C 95.113281 37.496094 96 35.382812 95.867188 33.15625 C 95.730469 30.925781 94.609375 28.917969 92.765625 27.660156 L 87.925781 24.328125 C 84.808594 22.183594 80.554688 22.820312 78.242188 25.785156 L 52.105469 58.707031 L 48.132812 52.957031 L 64.050781 38.96875 C 65.742188 37.496094 66.628906 35.367188 66.496094 33.15625 C 66.363281 30.925781 65.222656 28.917969 63.378906 27.660156 L 58.554688 24.328125 C 55.457031 22.183594 51.183594 22.835938 48.855469 25.785156 L 22.734375 58.707031 L 13.066406 44.699219 C 11.726562 42.738281 9.515625 41.582031 7.136719 41.582031 C 5.949219 41.582031 4.84375 41.851562 3.835938 42.386719 C 1.828125 43.425781 0.4375 45.300781 0.0664062 47.546875 C -0.316406 49.792969 0.351562 52.003906 1.894531 53.664062 Z M 1.707031 47.832031 C 2.011719 46.105469 3.066406 44.664062 4.605469 43.863281 C 5.378906 43.460938 6.234375 43.257812 7.136719 43.257812 C 8.964844 43.257812 10.671875 44.144531 11.695312 45.636719 L 21.996094 60.597656 C 22.148438 60.816406 22.382812 60.949219 22.652344 60.949219 C 22.9375 60.984375 23.171875 60.851562 23.339844 60.632812 L 50.160156 26.824219 C 51.953125 24.5625 55.222656 24.058594 57.601562 25.699219 L 62.425781 29.035156 C 63.847656 30.007812 64.71875 31.546875 64.820312 33.257812 C 64.921875 34.949219 64.234375 36.574219 62.945312 37.710938 L 46.476562 52.1875 L 45.488281 53.042969 L 26.503906 69.730469 C 24.292969 71.671875 20.859375 71.503906 18.847656 69.359375 L 3.117188 52.507812 C 1.925781 51.25 1.425781 49.542969 1.707031 47.832031 Z M 1.707031 47.832031 " fill-opacity="1" fill-rule="nonzero"/></g></svg>