<svg xmlns="http://www.w3.org/2000/svg" xmlns:xlink="http://www.w3.org/1999/xlink" width="128" zoomAndPan="magnify" viewBox="0 0 96 95.999999" height="128" preserveAspectRatio="xMidYMid meet" version="1.0"><defs><clipPath id="06d6b3ca97"><path d="M 35.761719 0 L 60 0 L 60 96 L 35.761719 96 Z M 35.761719 0 " clip-rule="nonzero"/></clipPath><clipPath id="6143d9e4a2"><path d="M 35.761719 12.238281 L 35.761719 83.761719 C 35.761719 90.519531 41.238281 96 48 96 C 54.761719 96 60.238281 90.519531 60.238281 83.761719 L 60.238281 12.238281 C 60.238281 5.480469 54.761719 0 48 0 C 41.238281 0 35.761719 5.480469 35.761719 12.238281 Z M 35.761719 12.238281 " clip-rule="nonzero"/></clipPath></defs><g clip-path="url(#06d6b3ca97)"><g clip-path="url(#6143d9e4a2)"><path fill="#c2dcff" d="M 47.941406 24 C 48.730469 24 49.507812 23.921875 50.28125 23.769531 C 51.054688 23.617188 51.804688 23.386719 52.535156 23.085938 C 53.261719 22.785156 53.953125 22.414062 54.609375 21.976562 C 55.261719 21.539062 55.871094 21.042969 56.425781 20.484375 C 56.984375 19.929688 57.480469 19.320312 57.917969 18.667969 C 58.355469 18.011719 58.726562 17.320312 59.027344 16.59375 C 59.328125 15.863281 59.558594 15.113281 59.710938 14.339844 C 59.863281 13.566406 59.941406 12.789062 59.941406 12 C 59.941406 11.210938 59.863281 10.433594 59.710938 9.660156 C 59.558594 8.886719 59.328125 8.136719 59.027344 7.40625 C 58.726562 6.679688 58.355469 5.988281 57.917969 5.332031 C 57.480469 4.679688 56.984375 4.070312 56.425781 3.515625 C 55.871094 2.957031 55.261719 2.460938 54.609375 2.023438 C 53.953125 1.585938 53.261719 1.214844 52.535156 0.914062 C 51.804688 0.613281 51.054688 0.382812 50.28125 0.230469 C 49.507812 0.078125 48.730469 0 47.941406 0 C 47.152344 0 46.371094 0.078125 45.601562 0.230469 C 44.828125 0.382812 44.078125 0.613281 43.347656 0.914062 C 42.621094 1.214844 41.929688 1.585938 41.273438 2.023438 C 40.617188 2.460938 40.011719 2.957031 39.457031 3.515625 C 38.898438 4.070312 38.402344 4.679688 37.964844 5.332031 C 37.527344 5.988281 37.15625 6.679688 36.855469 7.40625 C 36.554688 8.136719 36.324219 8.886719 36.171875 9.660156 C 36.019531 10.433594 35.941406 11.210938 35.941406 12 C 35.941406 12.789062 36.019531 13.566406 36.171875 14.339844 C 36.324219 15.113281 36.554688 15.863281 36.855469 16.59375 C 37.15625 17.320312 37.527344 18.011719 37.964844 18.667969 C 38.402344 19.320312 38.898438 19.929688 39.457031 20.484375 C 40.011719 21.042969 40.617188 21.539062 41.273438 21.976562 C 41.929688 22.414062 42.621094 22.785156 43.347656 23.085938 C 44.078125 23.386719 44.828125 23.617188 45.601562 23.769531 C 46.371094 23.921875 47.152344 24 47.941406 24 Z M 47.941406 36 C 47.152344 36 46.371094 36.078125 45.601562 36.230469 C 44.828125 36.382812 44.078125 36.613281 43.347656 36.914062 C 42.621094 37.214844 41.929688 37.585938 41.273438 38.023438 C 40.617188 38.460938 40.011719 38.957031 39.457031 39.515625 C 38.898438 40.070312 38.402344 40.679688 37.964844 41.332031 C 37.527344 41.988281 37.15625 42.679688 36.855469 43.40625 C 36.554688 44.136719 36.324219 44.886719 36.171875 45.660156 C 36.019531 46.433594 35.941406 47.210938 35.941406 48 C 35.941406 48.789062 36.019531 49.566406 36.171875 50.339844 C 36.324219 51.113281 36.554688 51.863281 36.855469 52.59375 C 37.15625 53.320312 37.527344 54.011719 37.964844 54.667969 C 38.402344 55.320312 38.898438 55.929688 39.457031 56.484375 C 40.011719 57.042969 40.617188 57.539062 41.273438 57.976562 C 41.929688 58.414062 42.621094 58.785156 43.347656 59.085938 C 44.078125 59.386719 44.828125 59.617188 45.601562 59.769531 C 46.371094 59.921875 47.152344 60 47.941406 60 C 48.730469 60 49.507812 59.921875 50.28125 59.769531 C 51.054688 59.617188 51.804688 59.386719 52.535156 59.085938 C 53.261719 58.785156 53.953125 58.414062 54.609375 57.976562 C 55.261719 57.539062 55.871094 57.042969 56.425781 56.484375 C 56.984375 55.929688 57.480469 55.320312 57.917969 54.667969 C 58.355469 54.011719 58.726562 53.320312 59.027344 52.59375 C 59.328125 51.863281 59.558594 51.113281 59.710938 50.339844 C 59.863281 49.566406 59.941406 48.789062 59.941406 48 C 59.941406 47.210938 59.863281 46.433594 59.710938 45.660156 C 59.558594 44.886719 59.328125 44.136719 59.027344 43.40625 C 58.726562 42.679688 58.355469 41.988281 57.917969 41.332031 C 57.480469 40.679688 56.984375 40.070312 56.425781 39.515625 C 55.871094 38.957031 55.261719 38.460938 54.609375 38.023438 C 53.953125 37.585938 53.261719 37.214844 52.535156 36.914062 C 51.804688 36.613281 51.054688 36.382812 50.28125 36.230469 C 49.507812 36.078125 48.730469 36 47.941406 36 Z M 47.941406 72 C 47.152344 72 46.371094 72.078125 45.601562 72.230469 C 44.828125 72.382812 44.078125 72.613281 43.347656 72.914062 C 42.621094 73.214844 41.929688 73.585938 41.273438 74.023438 C 40.617188 74.460938 40.011719 74.957031 39.457031 75.515625 C 38.898438 76.070312 38.402344 76.679688 37.964844 77.332031 C 37.527344 77.988281 37.15625 78.679688 36.855469 79.40625 C 36.554688 80.136719 36.324219 80.886719 36.171875 81.660156 C 36.019531 82.433594 35.941406 83.210938 35.941406 84 C 35.941406 84.789062 36.019531 85.566406 36.171875 86.339844 C 36.324219 87.113281 36.554688 87.863281 36.855469 88.59375 C 37.15625 89.320312 37.527344 90.011719 37.964844 90.667969 C 38.402344 91.320312 38.898438 91.929688 39.457031 92.484375 C 40.011719 93.042969 40.617188 93.539062 41.273438 93.976562 C 41.929688 94.414062 42.621094 94.785156 43.347656 95.085938 C 44.078125 95.386719 44.828125 95.617188 45.601562 95.769531 C 46.371094 95.921875 47.152344 96 47.941406 96 C 48.730469 96 49.507812 95.921875 50.28125 95.769531 C 51.054688 95.617188 51.804688 95.386719 52.535156 95.085938 C 53.261719 94.785156 53.953125 94.414062 54.609375 93.976562 C 55.261719 93.539062 55.871094 93.042969 56.425781 92.484375 C 56.984375 91.929688 57.480469 91.320312 57.917969 90.667969 C 58.355469 90.011719 58.726562 89.320312 59.027344 88.59375 C 59.328125 87.863281 59.558594 87.113281 59.710938 86.339844 C 59.863281 85.566406 59.941406 84.789062 59.941406 84 C 59.941406 83.210938 59.863281 82.433594 59.710938 81.660156 C 59.558594 80.886719 59.328125 80.136719 59.027344 79.40625 C 58.726562 78.679688 58.355469 77.988281 57.917969 77.332031 C 57.480469 76.679688 56.984375 76.070312 56.425781 75.515625 C 55.871094 74.957031 55.261719 74.460938 54.609375 74.023438 C 53.953125 73.585938 53.261719 73.214844 52.535156 72.914062 C 51.804688 72.613281 51.054688 72.382812 50.28125 72.230469 C 49.507812 72.078125 48.730469 72 47.941406 72 Z M 47.941406 72 " fill-opacity="1" fill-rule="evenodd"/></g></g></svg>