<svg xmlns="http://www.w3.org/2000/svg" xmlns:xlink="http://www.w3.org/1999/xlink" width="128" zoomAndPan="magnify" viewBox="0 0 96 95.999999" height="128" preserveAspectRatio="xMidYMid meet" version="1.0"><defs><clipPath id="73fe571d33"><path d="M 5.578125 0 L 90.328125 0 L 90.328125 96 L 5.578125 96 Z M 5.578125 0 " clip-rule="nonzero"/></clipPath></defs><g clip-path="url(#73fe571d33)"><path fill="#ff3131" d="M 79.347656 81.230469 L 84.898438 81.230469 C 86.027344 81.230469 87.15625 81.222656 88.28125 81.230469 C 89.558594 81.234375 90.425781 81.976562 90.421875 83.046875 C 90.417969 84.117188 89.550781 84.851562 88.269531 84.851562 C 78.269531 84.855469 68.269531 84.855469 58.269531 84.851562 L 57.191406 84.851562 C 57.191406 86.351562 57.207031 87.78125 57.1875 89.207031 C 57.226562 90.179688 57.183594 91.152344 57.066406 92.117188 C 57.011719 92.460938 56.921875 92.792969 56.792969 93.117188 C 56.664062 93.441406 56.496094 93.746094 56.296875 94.027344 C 56.097656 94.3125 55.867188 94.570312 55.605469 94.800781 C 55.34375 95.03125 55.0625 95.230469 54.753906 95.394531 C 54.449219 95.558594 54.125 95.683594 53.789062 95.773438 C 53.453125 95.863281 53.113281 95.914062 52.765625 95.921875 C 52.414062 95.933594 52.070312 95.902344 51.730469 95.832031 C 51.390625 95.761719 51.0625 95.652344 50.746094 95.503906 C 42.980469 92.109375 35.234375 88.664062 27.46875 85.265625 C 26.882812 85.011719 26.269531 84.878906 25.632812 84.871094 C 19.683594 84.839844 13.734375 84.847656 7.785156 84.855469 C 6.996094 84.855469 6.296875 84.691406 5.859375 83.976562 C 5.070312 82.699219 5.964844 81.242188 7.566406 81.230469 C 10.285156 81.210938 13 81.226562 15.71875 81.226562 L 16.640625 81.226562 L 16.640625 80.101562 C 16.640625 58.152344 16.640625 36.203125 16.640625 14.253906 C 16.640625 11.34375 17.832031 9.125 20.554688 7.949219 C 21.488281 7.578125 22.457031 7.390625 23.464844 7.398438 C 28.234375 7.34375 33.003906 7.382812 37.773438 7.359375 C 38.207031 7.355469 38.617188 7.253906 39 7.046875 C 42.640625 5.003906 46.300781 2.988281 49.886719 0.84375 C 52.804688 -0.902344 55.699219 0.410156 56.65625 2.53125 C 56.949219 3.269531 57.121094 4.035156 57.171875 4.828125 C 57.222656 5.675781 57.230469 6.523438 57.191406 7.375 L 58.152344 7.375 C 62.894531 7.375 67.640625 7.375 72.382812 7.375 C 76.65625 7.375 79.347656 10.066406 79.347656 14.34375 C 79.347656 36.242188 79.347656 58.140625 79.347656 80.039062 Z M 53.566406 47.957031 C 53.566406 33.648438 53.566406 19.34375 53.566406 5.035156 C 53.566406 3.640625 52.933594 3.269531 51.726562 3.953125 C 43.90625 8.398438 36.089844 12.835938 28.269531 17.277344 C 28.0625 17.371094 27.898438 17.519531 27.78125 17.71875 C 27.667969 17.917969 27.621094 18.132812 27.640625 18.363281 C 27.65625 39.128906 27.65625 59.898438 27.640625 80.671875 C 27.609375 80.898438 27.65625 81.113281 27.78125 81.304688 C 27.90625 81.5 28.078125 81.632812 28.300781 81.703125 C 33.417969 83.933594 38.519531 86.191406 43.628906 88.445312 C 46.390625 89.667969 49.152344 90.898438 51.921875 92.105469 C 52.988281 92.566406 53.554688 92.183594 53.566406 91.035156 C 53.566406 90.828125 53.566406 90.625 53.566406 90.417969 Z M 57.238281 18.425781 L 57.238281 81.167969 L 68.292969 81.167969 L 68.292969 18.425781 Z M 75.722656 81.195312 L 75.722656 80.421875 C 75.722656 58.292969 75.722656 36.164062 75.722656 14.035156 C 75.722656 12.097656 74.609375 11.003906 72.652344 11 C 67.78125 10.996094 62.90625 10.996094 58.035156 11 C 57.765625 11 57.496094 11.023438 57.253906 11.035156 L 57.253906 14.757812 L 68.457031 14.757812 C 70.996094 14.757812 71.964844 15.722656 71.964844 18.234375 C 71.964844 38.878906 71.964844 59.519531 71.964844 80.164062 L 71.964844 81.195312 Z M 31.71875 11.199219 L 31.683594 11 L 30.945312 11 C 28.460938 11 25.972656 11 23.488281 11 C 21.324219 11 20.265625 12.046875 20.265625 14.195312 C 20.265625 36.238281 20.265625 58.285156 20.265625 80.332031 L 20.265625 81.164062 L 24.023438 81.164062 L 24.023438 80.027344 C 24.023438 59.46875 24.019531 38.910156 24.011719 18.351562 C 24.007812 16.394531 24.765625 15.046875 26.503906 14.140625 C 28.273438 13.222656 29.984375 12.183594 31.71875 11.195312 Z M 31.71875 11.199219 " fill-opacity="1" fill-rule="nonzero"/></g><path fill="#ff3131" d="M 49.804688 47.945312 C 49.804688 48.429688 49.714844 48.898438 49.53125 49.347656 C 49.34375 49.796875 49.082031 50.195312 48.738281 50.539062 C 48.394531 50.882812 48 51.148438 47.550781 51.335938 C 47.101562 51.523438 46.636719 51.613281 46.148438 51.617188 C 45.664062 51.617188 45.195312 51.523438 44.75 51.335938 C 44.300781 51.152344 43.902344 50.886719 43.558594 50.542969 C 43.21875 50.199219 42.953125 49.800781 42.769531 49.351562 C 42.582031 48.902344 42.492188 48.433594 42.492188 47.949219 C 42.492188 47.464844 42.589844 46.996094 42.777344 46.546875 C 42.964844 46.101562 43.230469 45.703125 43.574219 45.363281 C 43.921875 45.019531 44.316406 44.757812 44.765625 44.574219 C 45.21875 44.390625 45.683594 44.300781 46.171875 44.304688 C 46.648438 44.316406 47.109375 44.414062 47.550781 44.605469 C 47.988281 44.792969 48.378906 45.058594 48.71875 45.398438 C 49.054688 45.734375 49.320312 46.125 49.507812 46.566406 C 49.695312 47.007812 49.792969 47.464844 49.804688 47.945312 Z M 49.804688 47.945312 " fill-opacity="1" fill-rule="nonzero"/></svg>