<svg xmlns="http://www.w3.org/2000/svg" xmlns:xlink="http://www.w3.org/1999/xlink" width="128" zoomAndPan="magnify" viewBox="0 0 96 95.999999" height="128" preserveAspectRatio="xMidYMid meet" version="1.0"><defs><clipPath id="d17bed1a47"><path d="M 49 11.941406 L 82 11.941406 L 82 48 L 49 48 Z M 49 11.941406 " clip-rule="nonzero"/></clipPath><clipPath id="ee841c29c9"><path d="M 50 52 L 96 52 L 96 83.941406 L 50 83.941406 Z M 50 52 " clip-rule="nonzero"/></clipPath><clipPath id="f50e5e9cb1"><path d="M 0 53 L 63 53 L 63 83.941406 L 0 83.941406 Z M 0 53 " clip-rule="nonzero"/></clipPath></defs><g clip-path="url(#d17bed1a47)"><path fill="#c2dcff" d="M 61.355469 12.121094 C 57.246094 12.722656 53.136719 14.988281 50.554688 18.105469 L 49.796875 19.003906 L 50.726562 20.875 C 53.625 26.730469 53.65625 33.53125 50.789062 39.546875 L 50.207031 40.757812 L 50.695312 41.371094 C 51.230469 42.050781 52.835938 43.386719 54.253906 44.332031 C 57.101562 46.238281 60.394531 47.214844 64.015625 47.214844 C 68.753906 47.214844 72.734375 45.59375 76.214844 42.238281 C 77.835938 40.679688 78.921875 39.167969 79.914062 37.105469 C 81.835938 33.140625 82.085938 28.023438 80.589844 23.773438 C 80.007812 22.105469 79.710938 21.503906 78.65625 19.882812 C 74.972656 14.199219 68.140625 11.132812 61.355469 12.121094 Z M 61.355469 12.121094 " fill-opacity="1" fill-rule="nonzero"/></g><path fill="#c2dcff" d="M 29.378906 12.691406 C 22.421875 13.777344 16.753906 18.875 14.882812 25.726562 C 14.488281 27.171875 14.457031 27.535156 14.441406 30.210938 C 14.441406 32.886719 14.472656 33.25 14.867188 34.699219 C 16.628906 41.199219 22.136719 46.363281 28.703125 47.605469 C 30.230469 47.890625 33.441406 47.9375 34.859375 47.6875 C 38.195312 47.070312 41.390625 45.433594 43.910156 43.058594 C 48.917969 38.335938 50.710938 31.203125 48.554688 24.621094 C 47.011719 19.898438 43.390625 15.917969 38.875 13.964844 C 36.574219 12.972656 35.269531 12.707031 32.371094 12.660156 C 30.984375 12.625 29.648438 12.640625 29.378906 12.691406 Z M 29.378906 12.691406 " fill-opacity="1" fill-rule="nonzero"/><g clip-path="url(#ee841c29c9)"><path fill="#c2dcff" d="M 61.023438 52.976562 C 58.804688 53.289062 57.148438 53.621094 55.75 54.015625 C 53.9375 54.519531 50.867188 55.683594 50.882812 55.839844 C 50.882812 55.902344 51.625 56.515625 52.539062 57.210938 C 58.945312 62.089844 63.667969 69.472656 65.414062 77.3125 C 65.886719 79.453125 66.296875 82.160156 66.296875 83.167969 L 66.296875 83.894531 L 81.125 83.863281 L 95.972656 83.816406 L 95.925781 82.398438 C 95.765625 78.070312 94.222656 72.890625 91.863281 68.78125 C 88.558594 63.050781 83.929688 58.753906 78.074219 55.964844 C 75.175781 54.582031 72.957031 53.855469 69.761719 53.257812 C 68.46875 53.007812 62.171875 52.816406 61.023438 52.976562 Z M 61.023438 52.976562 " fill-opacity="1" fill-rule="nonzero"/></g><g clip-path="url(#f50e5e9cb1)"><path fill="#c2dcff" d="M 28.988281 53.621094 C 21.351562 54.359375 14.722656 57.414062 9.480469 62.625 C 3.863281 68.199219 0.695312 75.03125 0.113281 82.824219 L 0.0195312 84.050781 L 62.832031 84.050781 L 62.738281 82.824219 C 62.15625 75.046875 58.867188 67.929688 53.371094 62.53125 C 51.546875 60.753906 50.585938 59.964844 48.601562 58.640625 C 44.636719 55.980469 39.503906 54.171875 34.511719 53.667969 C 33 53.527344 30.246094 53.496094 28.988281 53.621094 Z M 28.988281 53.621094 " fill-opacity="1" fill-rule="nonzero"/></g></svg>