<svg xmlns="http://www.w3.org/2000/svg" xmlns:xlink="http://www.w3.org/1999/xlink" width="64" zoomAndPan="magnify" viewBox="0 0 48 48" height="64" preserveAspectRatio="xMidYMid meet" version="1.0"><defs><clipPath id="75f2b4f81e"><path d="M 0.488281 11.136719 L 47.507812 11.136719 L 47.507812 36 L 0.488281 36 Z M 0.488281 11.136719 " clip-rule="nonzero"/></clipPath></defs><g clip-path="url(#75f2b4f81e)"><path fill="#00bf63" d="M 9.121094 34.527344 C 9.820312 35.273438 10.753906 35.652344 11.691406 35.652344 C 12.511719 35.652344 13.339844 35.355469 14.011719 34.773438 L 19.355469 30.082031 L 23.507812 34.527344 C 24.207031 35.273438 25.140625 35.652344 26.074219 35.652344 C 26.90625 35.652344 27.734375 35.355469 28.40625 34.773438 L 46.253906 19.085938 C 47.074219 18.363281 47.511719 17.328125 47.445312 16.238281 C 47.378906 15.144531 46.828125 14.160156 45.925781 13.546875 L 43.554688 11.914062 C 42.027344 10.863281 39.945312 11.171875 38.8125 12.625 L 26.011719 28.75 L 24.066406 25.9375 L 31.863281 19.085938 C 32.691406 18.363281 33.125 17.320312 33.058594 16.238281 C 32.992188 15.144531 32.4375 14.160156 31.53125 13.546875 L 29.167969 11.914062 C 27.652344 10.863281 25.558594 11.183594 24.417969 12.625 L 11.625 28.75 L 6.890625 21.890625 C 6.234375 20.929688 5.152344 20.363281 3.984375 20.363281 C 3.402344 20.363281 2.863281 20.496094 2.367188 20.757812 C 1.382812 21.265625 0.703125 22.1875 0.523438 23.285156 C 0.332031 24.386719 0.664062 25.46875 1.417969 26.28125 Z M 1.328125 23.425781 C 1.472656 22.578125 1.992188 21.875 2.746094 21.480469 C 3.125 21.285156 3.542969 21.183594 3.984375 21.183594 C 4.878906 21.183594 5.71875 21.621094 6.21875 22.351562 L 11.265625 29.679688 C 11.339844 29.785156 11.453125 29.851562 11.585938 29.851562 C 11.722656 29.867188 11.839844 29.800781 11.921875 29.695312 L 25.058594 13.136719 C 25.9375 12.027344 27.535156 11.78125 28.703125 12.585938 L 31.066406 14.21875 C 31.761719 14.695312 32.191406 15.449219 32.238281 16.285156 C 32.289062 17.113281 31.953125 17.910156 31.320312 18.46875 L 23.253906 25.558594 L 22.769531 25.976562 L 13.472656 34.152344 C 12.386719 35.101562 10.707031 35.019531 9.722656 33.96875 L 2.015625 25.714844 C 1.433594 25.097656 1.1875 24.261719 1.328125 23.425781 Z M 1.328125 23.425781 " fill-opacity="1" fill-rule="nonzero"/></g></svg>