<svg xmlns="http://www.w3.org/2000/svg" xmlns:xlink="http://www.w3.org/1999/xlink" width="64" zoomAndPan="magnify" viewBox="0 0 48 48" height="64" preserveAspectRatio="xMidYMid meet" version="1.0"><defs><clipPath id="f80acee526"><path d="M 3.867188 0 L 44.273438 0 L 44.273438 47.019531 L 3.867188 47.019531 Z M 3.867188 0 " clip-rule="nonzero"/></clipPath></defs><g clip-path="url(#f80acee526)"><path fill="#9c94c1" d="M 38.980469 47.519531 L 14.828125 47.519531 C 14.496094 47.519531 14.167969 47.488281 13.84375 47.421875 C 13.515625 47.359375 13.199219 47.261719 12.894531 47.132812 C 12.585938 47.007812 12.296875 46.851562 12.019531 46.667969 C 11.746094 46.484375 11.488281 46.273438 11.253906 46.039062 C 11.019531 45.804688 10.808594 45.550781 10.625 45.273438 C 10.441406 44.996094 10.285156 44.707031 10.15625 44.398438 C 10.03125 44.09375 9.933594 43.777344 9.871094 43.453125 C 9.804688 43.125 9.773438 42.796875 9.769531 42.464844 L 9.769531 11.265625 C 9.773438 10.933594 9.804688 10.605469 9.871094 10.28125 C 9.933594 9.953125 10.03125 9.636719 10.15625 9.332031 C 10.285156 9.023438 10.441406 8.734375 10.625 8.457031 C 10.808594 8.183594 11.019531 7.925781 11.253906 7.691406 C 11.488281 7.457031 11.746094 7.25 12.019531 7.0625 C 12.296875 6.878906 12.585938 6.722656 12.894531 6.597656 C 13.199219 6.46875 13.515625 6.375 13.84375 6.308594 C 14.167969 6.242188 14.496094 6.210938 14.828125 6.210938 L 38.980469 6.210938 C 39.3125 6.210938 39.640625 6.242188 39.964844 6.308594 C 40.289062 6.375 40.605469 6.46875 40.914062 6.597656 C 41.21875 6.722656 41.511719 6.878906 41.785156 7.0625 C 42.0625 7.25 42.316406 7.457031 42.550781 7.691406 C 42.785156 7.925781 42.996094 8.183594 43.179688 8.457031 C 43.367188 8.734375 43.523438 9.023438 43.648438 9.332031 C 43.777344 9.636719 43.871094 9.953125 43.9375 10.28125 C 44.003906 10.605469 44.035156 10.933594 44.035156 11.265625 L 44.035156 42.464844 C 44.035156 42.796875 44.003906 43.125 43.9375 43.453125 C 43.871094 43.777344 43.777344 44.09375 43.648438 44.398438 C 43.523438 44.707031 43.367188 44.996094 43.179688 45.273438 C 42.996094 45.550781 42.785156 45.804688 42.550781 46.039062 C 42.316406 46.273438 42.0625 46.484375 41.785156 46.667969 C 41.511719 46.851562 41.21875 47.007812 40.914062 47.132812 C 40.605469 47.261719 40.289062 47.359375 39.964844 47.421875 C 39.640625 47.488281 39.3125 47.519531 38.980469 47.519531 Z M 14.828125 8.695312 C 14.488281 8.695312 14.160156 8.761719 13.84375 8.890625 C 13.53125 9.023438 13.253906 9.207031 13.011719 9.449219 C 12.769531 9.691406 12.585938 9.96875 12.453125 10.28125 C 12.324219 10.597656 12.257812 10.925781 12.257812 11.265625 L 12.257812 42.464844 C 12.257812 42.808594 12.324219 43.132812 12.453125 43.449219 C 12.585938 43.765625 12.769531 44.042969 13.011719 44.28125 C 13.253906 44.523438 13.53125 44.707031 13.84375 44.839844 C 14.160156 44.96875 14.488281 45.035156 14.828125 45.035156 L 38.980469 45.035156 C 39.320312 45.035156 39.648438 44.96875 39.960938 44.839844 C 40.277344 44.707031 40.554688 44.523438 40.796875 44.28125 C 41.035156 44.042969 41.222656 43.765625 41.355469 43.449219 C 41.484375 43.132812 41.550781 42.808594 41.550781 42.464844 L 41.550781 11.265625 C 41.550781 10.925781 41.484375 10.597656 41.355469 10.28125 C 41.222656 9.96875 41.035156 9.691406 40.796875 9.449219 C 40.554688 9.207031 40.277344 9.023438 39.960938 8.890625 C 39.648438 8.761719 39.320312 8.695312 38.980469 8.695312 Z M 5.109375 37.179688 C 4.945312 37.179688 4.785156 37.148438 4.632812 37.085938 C 4.480469 37.023438 4.347656 36.933594 4.230469 36.816406 C 4.113281 36.699219 4.023438 36.566406 3.960938 36.414062 C 3.898438 36.261719 3.867188 36.101562 3.867188 35.9375 L 3.867188 9.3125 C 3.867188 8.722656 3.925781 8.136719 4.042969 7.558594 C 4.15625 6.976562 4.328125 6.414062 4.554688 5.867188 C 4.78125 5.320312 5.058594 4.800781 5.386719 4.308594 C 5.71875 3.820312 6.089844 3.363281 6.507812 2.945312 C 6.925781 2.527344 7.382812 2.152344 7.875 1.824219 C 8.367188 1.496094 8.882812 1.21875 9.429688 0.992188 C 9.976562 0.765625 10.539062 0.59375 11.121094 0.476562 C 11.699219 0.363281 12.285156 0.304688 12.878906 0.304688 L 32.445312 0.304688 C 32.609375 0.304688 32.769531 0.335938 32.921875 0.398438 C 33.074219 0.460938 33.207031 0.550781 33.324219 0.667969 C 33.441406 0.785156 33.53125 0.917969 33.59375 1.070312 C 33.65625 1.222656 33.6875 1.382812 33.6875 1.546875 C 33.6875 1.710938 33.65625 1.871094 33.59375 2.019531 C 33.53125 2.171875 33.441406 2.308594 33.324219 2.425781 C 33.207031 2.542969 33.074219 2.628906 32.921875 2.695312 C 32.769531 2.757812 32.609375 2.789062 32.445312 2.789062 L 12.878906 2.789062 C 12.449219 2.789062 12.023438 2.832031 11.605469 2.914062 C 11.183594 3 10.777344 3.125 10.382812 3.289062 C 9.984375 3.453125 9.609375 3.652344 9.253906 3.890625 C 8.898438 4.128906 8.566406 4.398438 8.265625 4.703125 C 7.960938 5.003906 7.691406 5.335938 7.453125 5.691406 C 7.214844 6.046875 7.015625 6.421875 6.851562 6.816406 C 6.6875 7.214844 6.5625 7.621094 6.476562 8.042969 C 6.394531 8.460938 6.351562 8.886719 6.351562 9.3125 L 6.351562 35.9375 C 6.351562 36.101562 6.320312 36.261719 6.257812 36.414062 C 6.195312 36.566406 6.105469 36.699219 5.988281 36.816406 C 5.871094 36.933594 5.738281 37.023438 5.585938 37.085938 C 5.433594 37.148438 5.273438 37.179688 5.109375 37.179688 Z M 5.109375 37.179688 " fill-opacity="1" fill-rule="nonzero"/></g></svg>