<svg xmlns="http://www.w3.org/2000/svg" xmlns:xlink="http://www.w3.org/1999/xlink" width="64" zoomAndPan="magnify" viewBox="0 0 48 48" height="64" preserveAspectRatio="xMidYMid meet" version="1.0"><defs><clipPath id="3335a9e258"><path d="M 4.132812 0 L 43 0 L 43 47.019531 L 4.132812 47.019531 Z M 4.132812 0 " clip-rule="nonzero"/></clipPath></defs><g clip-path="url(#3335a9e258)"><path fill="#ffd699" d="M 29.660156 3.734375 C 35.722656 3.726562 38.804688 3.71875 38.898438 3.71875 C 40.363281 3.664062 41.480469 3.765625 42.378906 5 C 42.960938 5.792969 42.761719 7.335938 42.773438 7.980469 C 42.792969 9.296875 41.878906 10.195312 40.632812 10.289062 C 40.539062 10.296875 40.464844 10.371094 40.457031 10.464844 C 39.210938 22.027344 38.152344 32.382812 37.289062 41.527344 C 37.128906 43.191406 36.902344 44.257812 36.605469 44.71875 C 36.054688 45.578125 35.324219 46.222656 34.421875 46.648438 C 33.894531 46.898438 32.960938 47.015625 31.628906 47.007812 C 25.210938 46.964844 20.082031 46.964844 16.234375 47.003906 C 14.367188 47.023438 13.167969 46.898438 12.636719 46.628906 C 11.652344 46.132812 10.917969 45.40625 10.433594 44.457031 C 10.199219 44.003906 10.007812 42.988281 9.855469 41.40625 C 8.605469 28.621094 7.5625 18.335938 6.726562 10.554688 C 6.71875 10.453125 6.636719 10.378906 6.535156 10.371094 C 4.285156 10.25 4.019531 8.449219 4.167969 6.484375 C 4.300781 4.675781 5.296875 3.769531 7.152344 3.757812 C 7.835938 3.753906 11.226562 3.742188 17.320312 3.726562 C 17.40625 3.726562 17.476562 3.65625 17.472656 3.570312 C 17.453125 2.042969 18.015625 0.96875 19.167969 0.347656 C 19.609375 0.109375 20.363281 0 21.429688 0.015625 C 23.238281 0.0390625 24.621094 0.0390625 25.589844 0.015625 C 28.066406 -0.0507812 29.367188 1.132812 29.484375 3.570312 C 29.492188 3.664062 29.566406 3.734375 29.660156 3.734375 M 19.164062 3.71875 L 27.792969 3.734375 C 27.839844 3.734375 27.878906 3.695312 27.878906 3.648438 L 27.878906 3.25 C 27.878906 2.351562 27.207031 1.617188 26.367188 1.617188 L 20.597656 1.605469 C 19.761719 1.605469 19.082031 2.335938 19.082031 3.234375 L 19.078125 3.632812 C 19.078125 3.679688 19.117188 3.71875 19.164062 3.71875 M 6.515625 8.808594 L 40.417969 8.808594 C 40.882812 8.808594 41.257812 8.433594 41.257812 7.972656 L 41.257812 6.847656 C 41.257812 5.96875 40.496094 5.261719 39.558594 5.261719 L 7.375 5.261719 C 6.4375 5.261719 5.675781 5.96875 5.675781 6.847656 L 5.675781 7.972656 C 5.675781 8.433594 6.054688 8.808594 6.515625 8.808594 M 23.578125 45.417969 C 26.71875 45.417969 29.609375 45.414062 32.242188 45.410156 C 33.511719 45.410156 34.429688 44.996094 34.984375 44.164062 C 35.308594 43.683594 35.542969 42.679688 35.691406 41.144531 C 36.503906 32.648438 37.535156 22.453125 38.789062 10.550781 C 38.796875 10.464844 38.730469 10.390625 38.648438 10.390625 C 31.753906 10.386719 26.734375 10.378906 23.585938 10.378906 C 20.433594 10.378906 15.414062 10.378906 8.523438 10.386719 C 8.4375 10.386719 8.371094 10.460938 8.378906 10.546875 C 9.628906 22.445312 10.65625 32.644531 11.464844 41.136719 C 11.613281 42.671875 11.847656 43.679688 12.171875 44.15625 C 12.726562 44.988281 13.640625 45.40625 14.914062 45.410156 C 17.546875 45.410156 20.433594 45.414062 23.578125 45.417969 Z M 23.578125 45.417969 " fill-opacity="1" fill-rule="nonzero"/></g><path fill="#ffd699" d="M 24.324219 39.773438 C 24.324219 40.195312 23.984375 40.535156 23.5625 40.535156 L 23.503906 40.535156 C 23.078125 40.535156 22.738281 40.195312 22.738281 39.773438 L 22.738281 15.625 C 22.738281 15.203125 23.078125 14.863281 23.503906 14.863281 L 23.5625 14.863281 C 23.984375 14.863281 24.324219 15.203125 24.324219 15.625 Z M 24.324219 39.773438 " fill-opacity="1" fill-rule="nonzero"/><path fill="#ffd699" d="M 30.835938 39.851562 C 30.796875 40.292969 30.40625 40.617188 29.96875 40.578125 L 29.953125 40.578125 C 29.511719 40.539062 29.183594 40.152344 29.222656 39.710938 L 31.324219 15.699219 C 31.363281 15.257812 31.753906 14.933594 32.191406 14.972656 L 32.207031 14.972656 C 32.648438 15.011719 32.976562 15.402344 32.9375 15.839844 Z M 30.835938 39.851562 " fill-opacity="1" fill-rule="nonzero"/><path fill="#ffd699" d="M 17.921875 39.65625 C 17.957031 40.097656 17.632812 40.488281 17.191406 40.527344 L 17.175781 40.527344 C 16.730469 40.566406 16.34375 40.242188 16.300781 39.800781 L 14.171875 15.921875 C 14.132812 15.480469 14.460938 15.089844 14.902344 15.050781 L 14.917969 15.050781 C 15.359375 15.011719 15.75 15.335938 15.789062 15.777344 Z M 17.921875 39.65625 " fill-opacity="1" fill-rule="nonzero"/></svg>