<svg xmlns="http://www.w3.org/2000/svg" xmlns:xlink="http://www.w3.org/1999/xlink" width="64" zoomAndPan="magnify" viewBox="0 0 48 48" height="64" preserveAspectRatio="xMidYMid meet" version="1.0"><defs><clipPath id="6925c170e5"><path d="M 3.222656 0 L 45 0 L 45 47 L 3.222656 47 Z M 3.222656 0 " clip-rule="nonzero"/></clipPath></defs><g clip-path="url(#6925c170e5)"><path fill="#ff3131" d="M 39.351562 39.785156 L 42.066406 39.785156 C 42.621094 39.785156 43.171875 39.78125 43.722656 39.785156 C 44.351562 39.785156 44.773438 40.148438 44.773438 40.671875 C 44.769531 41.199219 44.347656 41.558594 43.71875 41.558594 C 38.820312 41.558594 33.921875 41.558594 29.027344 41.558594 L 28.5 41.558594 C 28.5 42.292969 28.503906 42.992188 28.496094 43.691406 C 28.515625 44.167969 28.496094 44.640625 28.4375 45.117188 C 28.410156 45.285156 28.367188 45.449219 28.304688 45.605469 C 28.238281 45.765625 28.160156 45.914062 28.058594 46.050781 C 27.960938 46.191406 27.847656 46.316406 27.722656 46.429688 C 27.59375 46.542969 27.457031 46.640625 27.304688 46.71875 C 27.15625 46.800781 26.996094 46.863281 26.832031 46.90625 C 26.667969 46.949219 26.5 46.976562 26.332031 46.980469 C 26.160156 46.984375 25.992188 46.96875 25.824219 46.933594 C 25.65625 46.898438 25.496094 46.847656 25.34375 46.773438 C 21.539062 45.109375 17.746094 43.425781 13.941406 41.761719 C 13.65625 41.636719 13.355469 41.570312 13.042969 41.566406 C 10.128906 41.550781 7.214844 41.554688 4.300781 41.558594 C 3.917969 41.558594 3.574219 41.480469 3.359375 41.128906 C 2.972656 40.503906 3.414062 39.789062 4.195312 39.785156 C 5.527344 39.773438 6.855469 39.78125 8.1875 39.78125 L 8.636719 39.78125 L 8.636719 39.230469 C 8.636719 28.480469 8.636719 17.734375 8.636719 6.984375 C 8.636719 5.558594 9.222656 4.472656 10.554688 3.894531 C 11.011719 3.714844 11.488281 3.625 11.980469 3.625 C 14.316406 3.601562 16.652344 3.617188 18.988281 3.609375 C 19.203125 3.605469 19.402344 3.554688 19.589844 3.453125 C 21.375 2.453125 23.164062 1.464844 24.921875 0.417969 C 26.351562 -0.4375 27.765625 0.203125 28.238281 1.242188 C 28.378906 1.605469 28.464844 1.980469 28.488281 2.367188 C 28.515625 2.78125 28.515625 3.199219 28.5 3.613281 L 28.96875 3.613281 C 31.292969 3.613281 33.613281 3.613281 35.9375 3.613281 C 38.03125 3.613281 39.347656 4.933594 39.347656 7.027344 C 39.347656 17.753906 39.347656 28.476562 39.347656 39.199219 Z M 26.722656 23.488281 C 26.722656 16.484375 26.722656 9.476562 26.722656 2.46875 C 26.722656 1.785156 26.414062 1.605469 25.820312 1.941406 C 21.992188 4.117188 18.164062 6.289062 14.335938 8.464844 C 14.105469 8.566406 14.003906 8.746094 14.027344 8.996094 C 14.035156 19.167969 14.035156 29.335938 14.027344 39.507812 C 14.011719 39.621094 14.035156 39.726562 14.09375 39.820312 C 14.15625 39.917969 14.242188 39.980469 14.347656 40.015625 C 16.855469 41.105469 19.355469 42.214844 21.855469 43.316406 C 23.210938 43.914062 24.5625 44.519531 25.917969 45.109375 C 26.441406 45.335938 26.71875 45.148438 26.722656 44.585938 C 26.722656 44.484375 26.722656 44.382812 26.722656 44.285156 Z M 28.523438 9.027344 L 28.523438 39.753906 L 33.933594 39.753906 L 33.933594 9.027344 Z M 37.574219 39.765625 L 37.574219 39.390625 C 37.574219 28.550781 37.574219 17.714844 37.574219 6.875 C 37.574219 5.925781 37.03125 5.390625 36.070312 5.390625 C 33.683594 5.390625 31.296875 5.390625 28.910156 5.390625 C 28.78125 5.390625 28.648438 5.402344 28.527344 5.40625 L 28.527344 7.230469 L 34.015625 7.230469 C 35.257812 7.230469 35.734375 7.703125 35.734375 8.933594 C 35.734375 19.042969 35.734375 29.152344 35.734375 39.261719 L 35.734375 39.765625 Z M 16.023438 5.488281 L 16.007812 5.390625 L 15.644531 5.390625 C 14.429688 5.390625 13.210938 5.390625 11.992188 5.390625 C 10.933594 5.390625 10.414062 5.902344 10.414062 6.953125 C 10.414062 17.75 10.414062 28.546875 10.414062 39.34375 L 10.414062 39.753906 L 12.257812 39.753906 L 12.257812 39.195312 C 12.257812 29.128906 12.253906 19.058594 12.25 8.992188 C 12.246094 8.03125 12.617188 7.371094 13.46875 6.929688 C 14.335938 6.476562 15.171875 5.96875 16.023438 5.488281 Z M 16.023438 5.488281 " fill-opacity="1" fill-rule="nonzero"/></g><path fill="#ff3131" d="M 24.878906 23.484375 C 24.882812 23.722656 24.835938 23.949219 24.746094 24.171875 C 24.65625 24.390625 24.527344 24.585938 24.359375 24.753906 C 24.191406 24.921875 23.996094 25.050781 23.777344 25.144531 C 23.558594 25.234375 23.328125 25.28125 23.089844 25.28125 C 22.851562 25.28125 22.625 25.234375 22.40625 25.144531 C 22.183594 25.054688 21.992188 24.921875 21.824219 24.753906 C 21.65625 24.585938 21.527344 24.390625 21.433594 24.171875 C 21.34375 23.953125 21.300781 23.722656 21.300781 23.484375 C 21.300781 23.246094 21.347656 23.019531 21.4375 22.800781 C 21.53125 22.578125 21.660156 22.386719 21.832031 22.21875 C 22 22.050781 22.195312 21.921875 22.414062 21.832031 C 22.632812 21.742188 22.863281 21.699219 23.101562 21.699219 C 23.335938 21.707031 23.5625 21.753906 23.777344 21.847656 C 23.992188 21.941406 24.183594 22.070312 24.347656 22.234375 C 24.515625 22.402344 24.644531 22.59375 24.734375 22.808594 C 24.828125 23.023438 24.875 23.25 24.878906 23.484375 Z M 24.878906 23.484375 " fill-opacity="1" fill-rule="nonzero"/></svg>