<svg xmlns="http://www.w3.org/2000/svg" xmlns:xlink="http://www.w3.org/1999/xlink" width="64" zoomAndPan="magnify" viewBox="0 0 48 48" height="64" preserveAspectRatio="xMidYMid meet" version="1.0"><defs><clipPath id="ddb88b0a47"><path d="M 24 5.847656 L 41 5.847656 L 41 24 L 24 24 Z M 24 5.847656 " clip-rule="nonzero"/></clipPath><clipPath id="0dc7c9b7bf"><path d="M 25 25 L 47.507812 25 L 47.507812 41.113281 L 25 41.113281 Z M 25 25 " clip-rule="nonzero"/></clipPath><clipPath id="7d147c9b31"><path d="M 0.488281 26 L 32 26 L 32 41.113281 L 0.488281 41.113281 Z M 0.488281 26 " clip-rule="nonzero"/></clipPath></defs><g clip-path="url(#ddb88b0a47)"><path fill="#c2dcff" d="M 30.539062 5.9375 C 28.527344 6.230469 26.515625 7.339844 25.25 8.867188 L 24.882812 9.308594 L 25.335938 10.226562 C 26.753906 13.09375 26.769531 16.425781 25.367188 19.371094 L 25.082031 19.964844 L 25.320312 20.265625 C 25.582031 20.597656 26.367188 21.25 27.0625 21.714844 C 28.457031 22.648438 30.070312 23.125 31.84375 23.125 C 34.164062 23.125 36.117188 22.332031 37.820312 20.6875 C 38.613281 19.925781 39.144531 19.183594 39.632812 18.175781 C 40.570312 16.230469 40.695312 13.726562 39.964844 11.644531 C 39.675781 10.828125 39.53125 10.535156 39.015625 9.738281 C 37.210938 6.957031 33.863281 5.453125 30.539062 5.9375 Z M 30.539062 5.9375 " fill-opacity="1" fill-rule="nonzero"/></g><path fill="#c2dcff" d="M 14.878906 6.214844 C 11.472656 6.746094 8.695312 9.246094 7.777344 12.601562 C 7.585938 13.308594 7.570312 13.488281 7.5625 14.796875 C 7.5625 16.109375 7.578125 16.285156 7.769531 16.996094 C 8.632812 20.179688 11.332031 22.707031 14.546875 23.316406 C 15.296875 23.457031 16.871094 23.480469 17.5625 23.355469 C 19.199219 23.054688 20.761719 22.253906 21.996094 21.089844 C 24.449219 18.777344 25.328125 15.28125 24.273438 12.058594 C 23.515625 9.746094 21.742188 7.796875 19.53125 6.839844 C 18.402344 6.355469 17.765625 6.222656 16.34375 6.199219 C 15.667969 6.183594 15.011719 6.191406 14.878906 6.214844 Z M 14.878906 6.214844 " fill-opacity="1" fill-rule="nonzero"/><g clip-path="url(#0dc7c9b7bf)"><path fill="#c2dcff" d="M 30.378906 25.945312 C 29.292969 26.101562 28.480469 26.261719 27.796875 26.457031 C 26.910156 26.703125 25.40625 27.273438 25.414062 27.351562 C 25.414062 27.382812 25.773438 27.683594 26.222656 28.019531 C 29.359375 30.410156 31.675781 34.027344 32.53125 37.867188 C 32.761719 38.917969 32.960938 40.242188 32.960938 40.734375 L 32.960938 41.089844 L 40.226562 41.074219 L 47.496094 41.050781 L 47.472656 40.359375 C 47.394531 38.238281 46.640625 35.699219 45.484375 33.6875 C 43.863281 30.882812 41.597656 28.777344 38.730469 27.410156 C 37.3125 26.734375 36.222656 26.378906 34.65625 26.085938 C 34.027344 25.960938 30.941406 25.871094 30.378906 25.945312 Z M 30.378906 25.945312 " fill-opacity="1" fill-rule="nonzero"/></g><g clip-path="url(#7d147c9b31)"><path fill="#c2dcff" d="M 14.6875 26.261719 C 10.949219 26.625 7.703125 28.121094 5.132812 30.671875 C 2.382812 33.402344 0.832031 36.75 0.546875 40.566406 L 0.5 41.167969 L 31.265625 41.167969 L 31.21875 40.566406 C 30.933594 36.757812 29.324219 33.273438 26.632812 30.628906 C 25.738281 29.757812 25.265625 29.371094 24.292969 28.722656 C 22.351562 27.417969 19.839844 26.53125 17.394531 26.285156 C 16.652344 26.21875 15.304688 26.203125 14.6875 26.261719 Z M 14.6875 26.261719 " fill-opacity="1" fill-rule="nonzero"/></g></svg>