<svg xmlns="http://www.w3.org/2000/svg" xmlns:xlink="http://www.w3.org/1999/xlink" width="64" zoomAndPan="magnify" viewBox="0 0 48 48" height="64" preserveAspectRatio="xMidYMid meet" version="1.0"><defs><clipPath id="7251e2834e"><path d="M 18.003906 0 L 29.761719 0 L 29.761719 47.019531 L 18.003906 47.019531 Z M 18.003906 0 " clip-rule="nonzero"/></clipPath><clipPath id="303f52200c"><path d="M 18.003906 5.996094 L 18.003906 41.023438 C 18.003906 44.335938 20.6875 47.019531 24 47.019531 C 27.3125 47.019531 29.996094 44.335938 29.996094 41.023438 L 29.996094 5.996094 C 29.996094 2.683594 27.3125 0 24 0 C 20.6875 0 18.003906 2.683594 18.003906 5.996094 Z M 18.003906 5.996094 " clip-rule="nonzero"/></clipPath></defs><g clip-path="url(#7251e2834e)"><g clip-path="url(#303f52200c)"><path fill="#c2dcff" d="M 23.972656 11.753906 C 24.355469 11.753906 24.738281 11.71875 25.117188 11.640625 C 25.496094 11.566406 25.863281 11.457031 26.21875 11.308594 C 26.578125 11.160156 26.914062 10.980469 27.238281 10.765625 C 27.558594 10.550781 27.855469 10.304688 28.128906 10.035156 C 28.398438 9.761719 28.644531 9.464844 28.859375 9.144531 C 29.074219 8.820312 29.253906 8.484375 29.402344 8.125 C 29.550781 7.769531 29.660156 7.402344 29.734375 7.023438 C 29.8125 6.644531 29.847656 6.261719 29.847656 5.878906 C 29.847656 5.492188 29.8125 5.109375 29.734375 4.730469 C 29.660156 4.351562 29.550781 3.984375 29.402344 3.628906 C 29.253906 3.273438 29.074219 2.933594 28.859375 2.613281 C 28.644531 2.292969 28.398438 1.996094 28.128906 1.722656 C 27.855469 1.449219 27.558594 1.203125 27.238281 0.992188 C 26.914062 0.777344 26.578125 0.59375 26.21875 0.449219 C 25.863281 0.300781 25.496094 0.1875 25.117188 0.113281 C 24.738281 0.0390625 24.355469 0 23.972656 0 C 23.585938 0 23.203125 0.0390625 22.824219 0.113281 C 22.445312 0.1875 22.078125 0.300781 21.722656 0.449219 C 21.367188 0.59375 21.027344 0.777344 20.707031 0.992188 C 20.386719 1.203125 20.089844 1.449219 19.816406 1.722656 C 19.542969 1.996094 19.296875 2.292969 19.085938 2.613281 C 18.871094 2.933594 18.6875 3.273438 18.539062 3.628906 C 18.394531 3.984375 18.28125 4.351562 18.207031 4.730469 C 18.132812 5.109375 18.09375 5.492188 18.09375 5.878906 C 18.09375 6.261719 18.132812 6.644531 18.207031 7.023438 C 18.28125 7.402344 18.394531 7.769531 18.539062 8.125 C 18.6875 8.484375 18.871094 8.820312 19.085938 9.144531 C 19.296875 9.464844 19.542969 9.761719 19.816406 10.035156 C 20.089844 10.304688 20.386719 10.550781 20.707031 10.765625 C 21.027344 10.980469 21.367188 11.160156 21.722656 11.308594 C 22.078125 11.457031 22.445312 11.566406 22.824219 11.640625 C 23.203125 11.71875 23.585938 11.753906 23.972656 11.753906 Z M 23.972656 17.632812 C 23.585938 17.632812 23.203125 17.671875 22.824219 17.746094 C 22.445312 17.820312 22.078125 17.933594 21.722656 18.078125 C 21.367188 18.226562 21.027344 18.410156 20.707031 18.625 C 20.386719 18.835938 20.089844 19.082031 19.816406 19.355469 C 19.542969 19.628906 19.296875 19.925781 19.085938 20.246094 C 18.871094 20.566406 18.6875 20.90625 18.539062 21.261719 C 18.394531 21.617188 18.28125 21.984375 18.207031 22.363281 C 18.132812 22.742188 18.09375 23.125 18.09375 23.511719 C 18.09375 23.894531 18.132812 24.277344 18.207031 24.65625 C 18.28125 25.035156 18.394531 25.402344 18.539062 25.757812 C 18.6875 26.117188 18.871094 26.453125 19.085938 26.777344 C 19.296875 27.097656 19.542969 27.394531 19.816406 27.667969 C 20.089844 27.9375 20.386719 28.183594 20.707031 28.398438 C 21.027344 28.613281 21.367188 28.792969 21.722656 28.941406 C 22.078125 29.089844 22.445312 29.199219 22.824219 29.273438 C 23.203125 29.351562 23.585938 29.386719 23.972656 29.386719 C 24.355469 29.386719 24.738281 29.351562 25.117188 29.273438 C 25.496094 29.199219 25.863281 29.089844 26.21875 28.941406 C 26.578125 28.792969 26.914062 28.613281 27.238281 28.398438 C 27.558594 28.183594 27.855469 27.9375 28.128906 27.667969 C 28.398438 27.394531 28.644531 27.097656 28.859375 26.777344 C 29.074219 26.453125 29.253906 26.117188 29.402344 25.757812 C 29.550781 25.402344 29.660156 25.035156 29.734375 24.65625 C 29.8125 24.277344 29.847656 23.894531 29.847656 23.511719 C 29.847656 23.125 29.8125 22.742188 29.734375 22.363281 C 29.660156 21.984375 29.550781 21.617188 29.402344 21.261719 C 29.253906 20.90625 29.074219 20.566406 28.859375 20.246094 C 28.644531 19.925781 28.398438 19.628906 28.128906 19.355469 C 27.855469 19.082031 27.558594 18.835938 27.238281 18.625 C 26.914062 18.410156 26.578125 18.226562 26.21875 18.078125 C 25.863281 17.933594 25.496094 17.820312 25.117188 17.746094 C 24.738281 17.671875 24.355469 17.632812 23.972656 17.632812 Z M 23.972656 35.265625 C 23.585938 35.265625 23.203125 35.304688 22.824219 35.378906 C 22.445312 35.453125 22.078125 35.566406 21.722656 35.710938 C 21.367188 35.859375 21.027344 36.042969 20.707031 36.253906 C 20.386719 36.46875 20.089844 36.714844 19.816406 36.988281 C 19.542969 37.257812 19.296875 37.554688 19.085938 37.878906 C 18.871094 38.199219 18.6875 38.535156 18.539062 38.894531 C 18.394531 39.25 18.28125 39.617188 18.207031 39.996094 C 18.132812 40.375 18.09375 40.757812 18.09375 41.144531 C 18.09375 41.527344 18.132812 41.910156 18.207031 42.289062 C 18.28125 42.667969 18.394531 43.035156 18.539062 43.390625 C 18.6875 43.75 18.871094 44.085938 19.085938 44.410156 C 19.296875 44.730469 19.542969 45.027344 19.816406 45.300781 C 20.089844 45.570312 20.386719 45.816406 20.707031 46.03125 C 21.027344 46.246094 21.367188 46.425781 21.722656 46.574219 C 22.078125 46.71875 22.445312 46.832031 22.824219 46.90625 C 23.203125 46.984375 23.585938 47.019531 23.972656 47.019531 C 24.355469 47.019531 24.738281 46.984375 25.117188 46.90625 C 25.496094 46.832031 25.863281 46.71875 26.21875 46.574219 C 26.578125 46.425781 26.914062 46.246094 27.238281 46.03125 C 27.558594 45.816406 27.855469 45.570312 28.128906 45.300781 C 28.398438 45.027344 28.644531 44.730469 28.859375 44.410156 C 29.074219 44.085938 29.253906 43.75 29.402344 43.390625 C 29.550781 43.035156 29.660156 42.667969 29.734375 42.289062 C 29.8125 41.910156 29.847656 41.527344 29.847656 41.144531 C 29.847656 40.757812 29.8125 40.375 29.734375 39.996094 C 29.660156 39.617188 29.550781 39.25 29.402344 38.894531 C 29.253906 38.535156 29.074219 38.199219 28.859375 37.878906 C 28.644531 37.554688 28.398438 37.257812 28.128906 36.988281 C 27.855469 36.714844 27.558594 36.46875 27.238281 36.253906 C 26.914062 36.042969 26.578125 35.859375 26.21875 35.710938 C 25.863281 35.566406 25.496094 35.453125 25.117188 35.378906 C 24.738281 35.304688 24.355469 35.265625 23.972656 35.265625 Z M 23.972656 35.265625 " fill-opacity="1" fill-rule="evenodd"/></g></g></svg>