<svg xmlns="http://www.w3.org/2000/svg" xmlns:xlink="http://www.w3.org/1999/xlink" width="512" zoomAndPan="magnify" viewBox="0 0 384 383.999986" height="512" preserveAspectRatio="xMidYMid meet" version="1.0"><defs><clipPath id="a29d81045b"><path d="M -79.527344 192 L 192 -79.527344 L 463.527344 192 L 192 463.527344 Z M -79.527344 192 " clip-rule="nonzero"/></clipPath><clipPath id="5ae28dd2e6"><path d="M -79.527344 192 L 192 -79.527344 L 463.527344 192 L 192 463.527344 Z M -79.527344 192 " clip-rule="nonzero"/></clipPath></defs><g clip-path="url(#a29d81045b)"><g clip-path="url(#5ae28dd2e6)"><path fill="#5bc9ff" d="M 56.234375 56.234375 C 54.011719 58.457031 51.847656 60.734375 49.738281 63.0625 C 47.628906 65.390625 45.574219 67.765625 43.582031 70.195312 C 41.589844 72.625 39.65625 75.101562 37.785156 77.625 C 35.914062 80.148438 34.105469 82.71875 32.359375 85.332031 C 30.613281 87.941406 28.929688 90.597656 27.316406 93.292969 C 25.699219 95.988281 24.152344 98.71875 22.671875 101.492188 C 21.191406 104.261719 19.777344 107.070312 18.433594 109.910156 C 17.089844 112.75 15.816406 115.621094 14.613281 118.523438 C 13.414062 121.429688 12.28125 124.359375 11.222656 127.316406 C 10.164062 130.277344 9.179688 133.257812 8.265625 136.265625 C 7.355469 139.273438 6.515625 142.300781 5.753906 145.347656 C 4.992188 148.394531 4.300781 151.460938 3.6875 154.542969 C 3.078125 157.625 2.539062 160.71875 2.078125 163.828125 C 1.617188 166.9375 1.234375 170.054688 0.925781 173.179688 C 0.617188 176.308594 0.386719 179.441406 0.230469 182.578125 C 0.078125 185.71875 0 188.859375 0 192 C 0 195.140625 0.078125 198.28125 0.230469 201.421875 C 0.386719 204.558594 0.617188 207.691406 0.925781 210.820312 C 1.234375 213.945312 1.617188 217.0625 2.078125 220.171875 C 2.539062 223.28125 3.078125 226.375 3.6875 229.457031 C 4.300781 232.539062 4.992188 235.605469 5.753906 238.652344 C 6.515625 241.699219 7.355469 244.726562 8.265625 247.734375 C 9.179688 250.742188 10.164062 253.722656 11.222656 256.683594 C 12.28125 259.640625 13.414062 262.570312 14.613281 265.476562 C 15.816406 268.378906 17.089844 271.25 18.433594 274.089844 C 19.777344 276.929688 21.191406 279.738281 22.671875 282.507812 C 24.152344 285.28125 25.699219 288.011719 27.316406 290.707031 C 28.929688 293.402344 30.613281 296.058594 32.359375 298.667969 C 34.105469 301.28125 35.914062 303.851562 37.785156 306.375 C 39.65625 308.898438 41.589844 311.375 43.582031 313.804688 C 45.574219 316.234375 47.628906 318.609375 49.738281 320.9375 C 51.847656 323.265625 54.011719 325.542969 56.234375 327.765625 C 58.457031 329.988281 60.734375 332.152344 63.0625 334.261719 C 65.390625 336.371094 67.765625 338.425781 70.195312 340.417969 C 72.625 342.410156 75.101562 344.34375 77.625 346.214844 C 80.148438 348.085938 82.71875 349.894531 85.332031 351.640625 C 87.941406 353.386719 90.597656 355.070312 93.292969 356.683594 C 95.988281 358.300781 98.71875 359.847656 101.492188 361.328125 C 104.261719 362.808594 107.070312 364.222656 109.910156 365.566406 C 112.75 366.910156 115.621094 368.183594 118.523438 369.386719 C 121.429688 370.585938 124.359375 371.71875 127.316406 372.777344 C 130.277344 373.835938 133.257812 374.820312 136.265625 375.734375 C 139.273438 376.644531 142.300781 377.484375 145.347656 378.246094 C 148.394531 379.007812 151.460938 379.699219 154.542969 380.3125 C 157.625 380.921875 160.71875 381.460938 163.828125 381.921875 C 166.9375 382.382812 170.054688 382.765625 173.179688 383.074219 C 176.308594 383.382812 179.441406 383.613281 182.578125 383.769531 C 185.71875 383.921875 188.859375 384 192 384 C 195.140625 384 198.28125 383.921875 201.421875 383.769531 C 204.558594 383.613281 207.691406 383.382812 210.820312 383.074219 C 213.945312 382.765625 217.0625 382.382812 220.171875 381.921875 C 223.28125 381.460938 226.375 380.921875 229.457031 380.3125 C 232.539062 379.699219 235.605469 379.007812 238.652344 378.246094 C 241.699219 377.484375 244.726562 376.644531 247.734375 375.734375 C 250.742188 374.820312 253.722656 373.835938 256.683594 372.777344 C 259.640625 371.71875 262.570312 370.585938 265.476562 369.386719 C 268.378906 368.183594 271.25 366.910156 274.089844 365.566406 C 276.929688 364.222656 279.738281 362.808594 282.507812 361.328125 C 285.28125 359.847656 288.011719 358.300781 290.707031 356.683594 C 293.402344 355.070312 296.058594 353.386719 298.667969 351.640625 C 301.28125 349.894531 303.851562 348.085938 306.375 346.214844 C 308.898438 344.34375 311.375 342.410156 313.804688 340.417969 C 316.234375 338.425781 318.609375 336.371094 320.9375 334.261719 C 323.265625 332.152344 325.542969 329.988281 327.765625 327.765625 C 329.988281 325.542969 332.152344 323.265625 334.261719 320.9375 C 336.371094 318.609375 338.425781 316.234375 340.417969 313.804688 C 342.410156 311.375 344.34375 308.898438 346.214844 306.375 C 348.085938 303.851562 349.894531 301.28125 351.640625 298.667969 C 353.386719 296.058594 355.070312 293.402344 356.683594 290.707031 C 358.300781 288.011719 359.847656 285.28125 361.328125 282.507812 C 362.808594 279.738281 364.222656 276.929688 365.566406 274.089844 C 366.910156 271.25 368.183594 268.378906 369.386719 265.476562 C 370.585938 262.570312 371.71875 259.640625 372.777344 256.683594 C 373.835938 253.722656 374.820312 250.742188 375.734375 247.734375 C 376.644531 244.726562 377.484375 241.699219 378.246094 238.652344 C 379.007812 235.605469 379.699219 232.539062 380.3125 229.457031 C 380.921875 226.375 381.460938 223.28125 381.921875 220.171875 C 382.382812 217.0625 382.765625 213.945312 383.074219 210.820312 C 383.382812 207.691406 383.613281 204.558594 383.769531 201.421875 C 383.921875 198.28125 384 195.140625 384 192 C 384 188.859375 383.921875 185.71875 383.769531 182.578125 C 383.613281 179.441406 383.382812 176.308594 383.074219 173.179688 C 382.765625 170.054688 382.382812 166.9375 381.921875 163.828125 C 381.460938 160.71875 380.921875 157.625 380.3125 154.542969 C 379.699219 151.460938 379.007812 148.394531 378.246094 145.347656 C 377.484375 142.300781 376.644531 139.273438 375.734375 136.265625 C 374.820312 133.257812 373.835938 130.277344 372.777344 127.316406 C 371.71875 124.359375 370.585938 121.429688 369.386719 118.523438 C 368.183594 115.621094 366.910156 112.75 365.566406 109.910156 C 364.222656 107.070312 362.808594 104.261719 361.328125 101.492188 C 359.847656 98.71875 358.300781 95.988281 356.683594 93.292969 C 355.070312 90.597656 353.386719 87.941406 351.640625 85.332031 C 349.894531 82.71875 348.085938 80.148438 346.214844 77.625 C 344.34375 75.101562 342.410156 72.625 340.417969 70.195312 C 338.425781 67.765625 336.371094 65.390625 334.261719 63.0625 C 332.152344 60.734375 329.988281 58.457031 327.765625 56.234375 C 325.542969 54.015625 323.265625 51.847656 320.9375 49.738281 C 318.609375 47.628906 316.230469 45.578125 313.800781 43.585938 C 311.375 41.589844 308.898438 39.660156 306.371094 37.789062 C 303.847656 35.914062 301.28125 34.105469 298.667969 32.363281 C 296.054688 30.617188 293.402344 28.9375 290.707031 27.320312 C 288.011719 25.707031 285.277344 24.15625 282.507812 22.675781 C 279.734375 21.195312 276.929688 19.785156 274.089844 18.441406 C 271.25 17.097656 268.375 15.824219 265.472656 14.621094 C 262.570312 13.421875 259.640625 12.289062 256.679688 11.230469 C 253.722656 10.171875 250.738281 9.1875 247.734375 8.277344 C 244.726562 7.363281 241.699219 6.527344 238.652344 5.761719 C 235.601562 5 232.539062 4.3125 229.457031 3.699219 C 226.375 3.085938 223.28125 2.546875 220.171875 2.085938 C 217.0625 1.625 213.945312 1.242188 210.820312 0.933594 C 207.691406 0.625 204.558594 0.394531 201.421875 0.242188 C 198.28125 0.0859375 195.140625 0.0117188 192 0.0117188 C 188.859375 0.0117188 185.71875 0.0859375 182.578125 0.242188 C 179.441406 0.394531 176.308594 0.625 173.179688 0.933594 C 170.054688 1.242188 166.9375 1.625 163.828125 2.085938 C 160.71875 2.546875 157.625 3.085938 154.542969 3.699219 C 151.460938 4.3125 148.398438 5 145.347656 5.761719 C 142.300781 6.527344 139.273438 7.363281 136.265625 8.277344 C 133.261719 9.1875 130.277344 10.171875 127.320312 11.230469 C 124.359375 12.289062 121.429688 13.421875 118.527344 14.621094 C 115.625 15.824219 112.75 17.097656 109.910156 18.441406 C 107.070312 19.785156 104.265625 21.195312 101.492188 22.675781 C 98.722656 24.15625 95.988281 25.707031 93.292969 27.320312 C 90.597656 28.9375 87.945312 30.617188 85.332031 32.363281 C 82.71875 34.105469 80.152344 35.914062 77.628906 37.789062 C 75.101562 39.660156 72.625 41.589844 70.199219 43.585938 C 67.769531 45.578125 65.390625 47.628906 63.0625 49.738281 C 60.734375 51.847656 58.457031 54.015625 56.234375 56.234375 Z M 215.632812 48.894531 L 294.078125 237.3125 C 294.542969 238.449219 294.921875 239.613281 295.21875 240.804688 C 295.515625 241.996094 295.726562 243.203125 295.847656 244.421875 C 295.972656 245.644531 296.007812 246.871094 295.953125 248.097656 C 295.902344 249.324219 295.761719 250.539062 295.535156 251.746094 C 295.308594 252.953125 294.996094 254.136719 294.597656 255.300781 C 294.199219 256.460938 293.722656 257.589844 293.164062 258.679688 C 292.605469 259.773438 291.96875 260.820312 291.257812 261.824219 C 290.550781 262.824219 289.773438 263.773438 288.925781 264.664062 C 288.082031 265.550781 287.175781 266.378906 286.210938 267.136719 C 285.246094 267.898438 284.234375 268.585938 283.171875 269.199219 C 282.109375 269.816406 281.007812 270.351562 279.867188 270.808594 C 278.726562 271.261719 277.558594 271.636719 276.367188 271.925781 C 275.171875 272.214844 273.964844 272.414062 272.742188 272.53125 C 271.519531 272.648438 270.296875 272.675781 269.070312 272.613281 C 267.84375 272.554688 266.628906 272.40625 265.421875 272.171875 C 264.21875 271.933594 263.035156 271.613281 261.875 271.210938 L 199.59375 249.0625 C 197.152344 248.195312 194.636719 247.757812 192.042969 247.757812 C 189.449219 247.757812 186.933594 248.195312 184.492188 249.0625 L 122.207031 271.210938 C 121.046875 271.625 119.863281 271.957031 118.65625 272.203125 C 117.449219 272.449219 116.230469 272.605469 115 272.671875 C 113.769531 272.742188 112.539062 272.722656 111.3125 272.613281 C 110.085938 272.503906 108.871094 272.304688 107.671875 272.019531 C 106.472656 271.734375 105.300781 271.367188 104.15625 270.914062 C 103.011719 270.457031 101.902344 269.921875 100.835938 269.308594 C 99.765625 268.695312 98.75 268.003906 97.78125 267.242188 C 96.8125 266.480469 95.902344 265.652344 95.054688 264.761719 C 94.207031 263.867188 93.425781 262.917969 92.714844 261.910156 C 92.003906 260.902344 91.367188 259.851562 90.808594 258.753906 C 90.25 257.65625 89.773438 256.523438 89.378906 255.355469 C 88.984375 254.1875 88.675781 253 88.449219 251.785156 C 88.226562 250.574219 88.09375 249.351562 88.046875 248.121094 C 88 246.890625 88.042969 245.660156 88.175781 244.4375 C 88.308594 243.210938 88.527344 242 88.832031 240.808594 C 89.140625 239.613281 89.53125 238.449219 90.007812 237.3125 L 168.453125 48.894531 C 168.945312 47.746094 169.515625 46.640625 170.167969 45.574219 C 170.820312 44.507812 171.546875 43.496094 172.347656 42.535156 C 173.148438 41.578125 174.015625 40.679688 174.945312 39.847656 C 175.878906 39.015625 176.867188 38.253906 177.910156 37.566406 C 178.953125 36.875 180.039062 36.265625 181.171875 35.738281 C 182.300781 35.207031 183.46875 34.765625 184.664062 34.402344 C 185.859375 34.042969 187.078125 33.773438 188.3125 33.59375 C 189.550781 33.410156 190.792969 33.320312 192.042969 33.320312 C 193.292969 33.320312 194.535156 33.410156 195.769531 33.59375 C 197.007812 33.773438 198.222656 34.042969 199.421875 34.402344 C 200.617188 34.765625 201.78125 35.207031 202.914062 35.738281 C 204.046875 36.265625 205.132812 36.875 206.175781 37.566406 C 207.21875 38.253906 208.207031 39.015625 209.136719 39.847656 C 210.070312 40.679688 210.9375 41.578125 211.734375 42.535156 C 212.535156 43.496094 213.261719 44.507812 213.917969 45.574219 C 214.570312 46.640625 215.140625 47.746094 215.632812 48.894531 Z M 215.632812 48.894531 " fill-opacity="1" fill-rule="nonzero"/></g></g></svg>